<svg width="1140" height="770" viewBox="0 0 1140 770" fill="none" xmlns="http://www.w3.org/2000/svg">
    <g clip-path="url(#clip0_255_3981)">
        <path opacity="0.3"
              d="M1054.91 216.705H800.052C788.127 216.705 778.46 226.37 778.46 238.294V588.136C778.46 600.06 788.127 609.725 800.052 609.725H1054.91C1066.84 609.725 1076.51 600.06 1076.51 588.136V238.294C1076.51 226.37 1066.84 216.705 1054.91 216.705Z"
              fill="url(#paint0_linear_255_3981)"/>
        <path d="M853.127 240.013H818.215C812.722 240.013 808.269 244.465 808.269 249.957V284.863C808.269 290.355 812.722 294.807 818.215 294.807H853.127C858.62 294.807 863.073 290.355 863.073 284.863V249.957C863.073 244.465 858.62 240.013 853.127 240.013Z"
              fill="white"/>
        <path d="M802.943 258.442C813.642 267.15 822.509 276.36 828.681 286.322C834.435 273.534 857.44 243.99 869.133 236.862L859.438 226.621C859.438 226.621 838.524 248.99 828.161 271.081C820.79 264.445 811.336 259.622 802.952 258.442H802.943Z"
              fill="url(#paint1_linear_255_3981)"/>
        <path d="M1038.01 254.074H895.196C893.254 254.074 891.683 252.503 891.683 250.561C891.683 248.619 893.254 247.048 895.196 247.048H1038.01C1039.96 247.048 1041.53 248.619 1041.53 250.561C1041.53 252.503 1039.96 254.074 1038.01 254.074Z"
              fill="white"/>
        <path d="M1038.01 264.427C1039.44 264.427 1040.6 265.588 1040.6 267.01C1040.6 268.432 1039.44 269.594 1038.01 269.594H895.196C893.774 269.594 892.612 268.432 892.612 267.01C892.612 265.588 893.774 264.427 895.196 264.427H1038.01ZM1038.01 263.497H895.196C893.254 263.497 891.683 265.068 891.683 267.01C891.683 268.953 893.254 270.523 895.196 270.523H1038.01C1039.96 270.523 1041.53 268.953 1041.53 267.01C1041.53 265.068 1039.96 263.497 1038.01 263.497Z"
              fill="white"/>
        <path d="M913.145 280.885C914.567 280.885 915.729 282.047 915.729 283.469C915.729 284.891 914.567 286.053 913.145 286.053H895.196C893.774 286.053 892.612 284.891 892.612 283.469C892.612 282.047 893.774 280.885 895.196 280.885H913.145ZM913.145 279.956H895.196C893.254 279.956 891.683 281.527 891.683 283.469C891.683 285.411 893.254 286.982 895.196 286.982H913.145C915.088 286.982 916.659 285.411 916.659 283.469C916.659 281.527 915.088 279.956 913.145 279.956Z"
              fill="white"/>
        <path d="M954.61 280.885C956.033 280.885 957.194 282.047 957.194 283.469C957.194 284.891 956.033 286.053 954.61 286.053H925.935C924.513 286.053 923.351 284.891 923.351 283.469C923.351 282.047 924.513 280.885 925.935 280.885H954.61ZM954.61 279.956H925.935C923.992 279.956 922.422 281.527 922.422 283.469C922.422 285.411 923.992 286.982 925.935 286.982H954.61C956.553 286.982 958.124 285.411 958.124 283.469C958.124 281.527 956.553 279.956 954.61 279.956Z"
              fill="white"/>
        <path d="M1008.99 280.885C1010.41 280.885 1011.57 282.047 1011.57 283.469C1011.57 284.891 1010.41 286.053 1008.99 286.053H966.796C965.374 286.053 964.212 284.891 964.212 283.469C964.212 282.047 965.374 280.885 966.796 280.885H1008.99ZM1008.99 279.956H966.796C964.854 279.956 963.283 281.527 963.283 283.469C963.283 285.411 964.854 286.982 966.796 286.982H1008.99C1010.93 286.982 1012.5 285.411 1012.5 283.469C1012.5 281.527 1010.93 279.956 1008.99 279.956Z"
              fill="white"/>
        <path d="M853.127 336.776C858.1 336.776 862.143 340.819 862.143 345.791V380.706C862.143 385.678 858.1 389.721 853.127 389.721H818.205C813.233 389.721 809.189 385.678 809.189 380.706V345.791C809.189 340.819 813.233 336.776 818.205 336.776H853.127ZM853.127 335.847H818.205C812.712 335.847 808.26 340.298 808.26 345.791V380.706C808.26 386.199 812.712 390.65 818.205 390.65H853.127C858.62 390.65 863.073 386.199 863.073 380.706V345.791C863.073 340.298 858.62 335.847 853.127 335.847Z"
              fill="white"/>
        <path d="M802.943 354.276C813.642 362.984 822.509 372.194 828.681 382.156C834.435 369.368 857.44 339.825 869.133 332.696L859.438 322.455C859.438 322.455 838.524 344.824 828.161 366.915C820.79 360.279 811.336 355.456 802.952 354.276H802.943Z"
              fill="url(#paint2_linear_255_3981)"/>
        <path d="M1038.01 349.917H895.196C893.254 349.917 891.683 348.347 891.683 346.404C891.683 344.462 893.254 342.891 895.196 342.891H1038.01C1039.96 342.891 1041.53 344.462 1041.53 346.404C1041.53 348.347 1039.96 349.917 1038.01 349.917Z"
              fill="white"/>
        <path d="M1038.01 360.27C1039.44 360.27 1040.6 361.432 1040.6 362.854C1040.6 364.276 1039.44 365.437 1038.01 365.437H895.196C893.774 365.437 892.612 364.276 892.612 362.854C892.612 361.432 893.774 360.27 895.196 360.27H1038.01ZM1038.01 359.341H895.196C893.254 359.341 891.683 360.911 891.683 362.854C891.683 364.796 893.254 366.367 895.196 366.367H1038.01C1039.96 366.367 1041.53 364.796 1041.53 362.854C1041.53 360.911 1039.96 359.341 1038.01 359.341Z"
              fill="white"/>
        <path d="M915.813 382.825H895.206C893.263 382.825 891.692 381.255 891.692 379.312C891.692 377.37 893.263 375.799 895.206 375.799H915.813C917.755 375.799 919.326 377.37 919.326 379.312C919.326 381.255 917.755 382.825 915.813 382.825Z"
              fill="white"/>
        <path d="M982.979 376.72C984.401 376.72 985.563 377.881 985.563 379.303C985.563 380.725 984.401 381.887 982.979 381.887H928.659C927.236 381.887 926.075 380.725 926.075 379.303C926.075 377.881 927.236 376.72 928.659 376.72H982.979ZM982.979 375.79H928.659C926.716 375.79 925.145 377.361 925.145 379.303C925.145 381.245 926.716 382.816 928.659 382.816H982.979C984.921 382.816 986.492 381.245 986.492 379.303C986.492 377.361 984.921 375.79 982.979 375.79Z"
              fill="white"/>
        <path d="M853.127 432.62C858.1 432.62 862.143 436.662 862.143 441.634V476.55C862.143 481.522 858.1 485.565 853.127 485.565H818.205C813.233 485.565 809.189 481.522 809.189 476.55V441.634C809.189 436.662 813.233 432.62 818.205 432.62H853.127ZM853.127 431.69H818.205C812.712 431.69 808.26 436.142 808.26 441.634V476.55C808.26 482.042 812.712 486.494 818.205 486.494H853.127C858.62 486.494 863.073 482.042 863.073 476.55V441.634C863.073 436.142 858.62 431.69 853.127 431.69Z"
              fill="white"/>
        <path d="M939.933 445.751H895.196C893.254 445.751 891.683 444.181 891.683 442.238C891.683 440.296 893.254 438.725 895.196 438.725H939.933C941.876 438.725 943.447 440.296 943.447 442.238C943.447 444.181 941.876 445.751 939.933 445.751Z"
              fill="white"/>
        <path d="M1021.29 439.646C1022.72 439.646 1023.88 440.807 1023.88 442.229C1023.88 443.651 1022.72 444.813 1021.29 444.813H956.302C954.88 444.813 953.718 443.651 953.718 442.229C953.718 440.807 954.88 439.646 956.302 439.646H1021.29ZM1021.29 438.716H956.302C954.359 438.716 952.789 440.287 952.789 442.229C952.789 444.171 954.359 445.742 956.302 445.742H1021.29C1023.24 445.742 1024.81 444.171 1024.81 442.229C1024.81 440.287 1023.24 438.716 1021.29 438.716Z"
              fill="white"/>
        <path d="M1038.01 456.104C1039.44 456.104 1040.6 457.266 1040.6 458.688C1040.6 460.11 1039.44 461.271 1038.01 461.271H895.196C893.774 461.271 892.612 460.11 892.612 458.688C892.612 457.266 893.774 456.104 895.196 456.104H1038.01ZM1038.01 455.175H895.196C893.254 455.175 891.683 456.746 891.683 458.688C891.683 460.63 893.254 462.201 895.196 462.201H1038.01C1039.96 462.201 1041.53 460.63 1041.53 458.688C1041.53 456.746 1039.96 455.175 1038.01 455.175Z"
              fill="white"/>
        <path d="M991.707 478.659H895.196C893.254 478.659 891.683 477.089 891.683 475.147C891.683 473.204 893.254 471.634 895.196 471.634H991.707C993.65 471.634 995.22 473.204 995.22 475.147C995.22 477.089 993.65 478.659 991.707 478.659Z"
              fill="white"/>
        <path d="M853.127 527.524H818.215C812.722 527.524 808.269 531.977 808.269 537.468V572.375C808.269 577.867 812.722 582.319 818.215 582.319H853.127C858.62 582.319 863.073 577.867 863.073 572.375V537.468C863.073 531.977 858.62 527.524 853.127 527.524Z"
              fill="white"/>
        <path d="M1038.01 535.48C1039.44 535.48 1040.6 536.641 1040.6 538.063C1040.6 539.485 1039.44 540.647 1038.01 540.647H895.196C893.774 540.647 892.612 539.485 892.612 538.063C892.612 536.641 893.774 535.48 895.196 535.48H1038.01ZM1038.01 534.55H895.196C893.254 534.55 891.683 536.121 891.683 538.063C891.683 540.006 893.254 541.576 895.196 541.576H1038.01C1039.96 541.576 1041.53 540.006 1041.53 538.063C1041.53 536.121 1039.96 534.55 1038.01 534.55Z"
              fill="white"/>
        <path d="M1038.01 551.938C1039.44 551.938 1040.6 553.1 1040.6 554.522C1040.6 555.944 1039.44 557.106 1038.01 557.106H895.196C893.774 557.106 892.612 555.944 892.612 554.522C892.612 553.1 893.774 551.938 895.196 551.938H1038.01ZM1038.01 551.009H895.196C893.254 551.009 891.683 552.58 891.683 554.522C891.683 556.464 893.254 558.035 895.196 558.035H1038.01C1039.96 558.035 1041.53 556.464 1041.53 554.522C1041.53 552.58 1039.96 551.009 1038.01 551.009Z"
              fill="white"/>
        <path d="M991.707 574.494H895.196C893.254 574.494 891.683 572.923 891.683 570.981C891.683 569.038 893.254 567.468 895.196 567.468H991.707C993.65 567.468 995.22 569.038 995.22 570.981C995.22 572.923 993.65 574.494 991.707 574.494Z"
              fill="white"/>
        <path d="M507.528 532.998C507.528 532.998 529.195 596.64 540.107 639.548C551.019 682.456 570.809 758.848 570.809 758.848H452.325V617.727L507.519 532.998H507.528Z"
              fill="url(#paint3_linear_255_3981)"/>
        <path d="M692.471 262.689V262.717C692.351 268.023 689.06 270.021 684.803 268.116C683.158 267.373 682.572 266.258 682.507 266.127V266.109C679.04 271.518 673.686 265.337 673.686 265.337C672.617 268.172 670.126 270.124 667.849 270.523L660.469 286.499C652.689 310.559 623.986 397.37 606.381 425.454C600.385 435.017 526.044 424.516 526.044 424.516L549.988 364.554L572.51 367.296L628.224 270.811L633.968 256.36C633.968 256.36 644.825 225.478 646.359 218.136C647.892 210.803 661.575 194.261 671.976 179.234C678.046 170.47 684.859 178.091 679.774 190.99C676.856 198.406 669.708 216.268 669.708 216.268C669.708 216.268 690.018 232.132 692.035 235.821C693.494 238.489 693.131 253.275 692.471 262.698V262.689Z"
              fill="url(#paint4_linear_255_3981)"/>
        <path d="M639.852 247.438C639.852 247.438 643.31 235.617 650.941 230.348C658.582 225.078 664.493 223.889 668.221 221.435C671.948 218.982 675.954 221.621 674.309 227.076C672.738 232.309 663.397 241.621 663.397 241.621C663.397 241.621 667.514 252.262 657.94 260.626"
              stroke="#192434" stroke-linecap="round" stroke-linejoin="round"/>
        <path d="M682.498 264.715L683.595 243.442" stroke="#192434" stroke-linecap="round" stroke-linejoin="round"/>
        <path d="M663.666 251.806C663.666 251.806 662.988 258.274 665.59 261.23C667.728 263.655 673.407 264.362 673.668 259.901L674.69 240.57"
              stroke="#192434" stroke-linecap="round" stroke-linejoin="round"/>
        <path d="M348.062 275.17C348.062 275.17 357.701 291.229 359.058 303.561C360.415 315.894 323.421 350.809 353.555 375.177C383.699 399.544 497.024 390.372 500.863 355.874C504.711 321.386 469.111 302.456 468.591 277.345C467.531 226.974 454.862 233.703 448.198 223.526C441.533 213.341 411.705 219.158 410.618 220.98C409.53 222.801 348.062 275.161 348.062 275.161V275.17Z"
              fill="#192434"/>
        <path d="M495.24 758.857H452.334V617.736L454.509 614.4C469.706 624.808 497.629 604.484 497.629 604.484C496.55 621.918 493.818 635.013 487.367 650.096L495.24 758.848V758.857Z"
              fill="#192434"/>
        <path d="M383.067 544.94C383.067 544.94 376.04 569.206 360.573 595.562C345.106 621.927 332.447 640.905 336.667 669.38C340.887 697.855 359.458 758.662 359.458 758.662H473.425L480.089 648.999C480.089 648.999 508.736 597.681 507.528 532.989C507.528 532.989 475.525 514.337 383.067 544.931V544.94Z"
              fill="url(#paint5_linear_255_3981)"/>
        <path d="M407.197 584.856C407.197 584.856 442.621 587.365 450.289 545.749H457.326C457.326 545.749 455.745 569.122 440.706 584.642C425.676 600.162 402.15 597.374 402.15 597.374L407.188 584.865L407.197 584.856Z"
              fill="#192434"/>
        <path d="M416.706 540.275C416.706 540.275 412.709 573.732 402.159 597.365C391.609 620.998 380.697 635.552 376.7 653.367C372.703 671.183 387.25 758.662 387.25 758.662"
              stroke="#192434" stroke-linecap="round" stroke-linejoin="round"/>
        <path d="M296.233 402.23L246.923 440.631L132.752 421.124L124.052 447.489C124.052 447.489 234.272 496.522 252.463 496.791C270.653 497.051 332.623 449.515 332.623 449.515L296.233 402.239V402.23Z"
              fill="url(#paint6_linear_255_3981)"/>
        <path d="M541.92 445.119C567.407 401.533 554.635 363.132 554.635 363.132L468.591 351.534L408.015 344.676C408.015 344.676 379.015 340.995 364.254 344.676C349.484 348.365 289.187 404.358 289.187 404.358C289.187 404.358 315.195 462.703 348.61 471.838L370.407 457.433C370.407 457.433 384.48 522.46 383.058 544.95C383.058 544.95 408.424 551.799 458.859 547.924C501.709 544.624 507.509 533.017 507.509 533.017C507.509 533.017 507.156 484.858 506.301 468.325C507.993 464.933 512.371 453.353 515.782 442.731L541.91 445.138L541.92 445.119Z"
              fill="url(#paint7_linear_255_3981)"/>
        <path d="M429.654 220.32C391.507 204.503 347.207 243.498 361.977 279.724C370.342 300.253 385.41 312.362 401.518 318.385L396.22 343.551C396.22 343.551 404.78 362.677 426.754 365.14C445.911 367.287 452.334 354.332 452.334 354.332L441.106 322.037C449.62 320.448 456.73 317.288 461.127 313.115C478.788 296.34 449.034 228.35 429.663 220.32H429.654Z"
              fill="url(#paint8_linear_255_3981)"/>
        <path d="M424.272 227.894C424.272 227.894 428.976 242.95 420.805 259.445C406.798 287.716 361.159 295.058 361.159 295.058C361.159 295.058 333.999 271.295 349.522 234.929C365.044 198.564 415.135 188.378 424.282 210.683C424.282 210.683 444.545 198.926 448.216 223.536C448.216 223.536 439.916 236.992 424.282 227.903L424.272 227.894Z"
              fill="#192434"/>
        <path d="M395.346 268.804C384.192 289.528 404.641 303.561 401.518 318.394C401.518 318.394 394.649 321.721 393.664 321.721C392.678 321.721 373.763 312.028 373.763 312.028L367.461 303.283L365.277 283.906L370.612 269.956"
              fill="#192434"/>
        <path d="M385.159 285.356C385.159 285.356 378.16 277.54 371.802 283.534C366.624 288.422 370.882 300.848 382.287 304.1C386.19 305.216 389.444 303.115 387.798 299.175C386.414 295.848 385.363 290.021 385.159 285.356Z"
              fill="url(#paint9_linear_255_3981)"/>
        <path d="M391.702 442.452L375.613 483.539C372.861 468.725 370.417 457.424 370.417 457.424L391.702 442.452Z"
              fill="#192434"/>
        <path d="M524.845 443.549L515.801 442.722C518.041 435.724 519.872 429.135 520.234 425.575C521.257 415.631 515.596 405.892 509.257 397.286C510.019 398.002 522.288 409.609 526.044 421.124C527.912 426.858 526.648 435.826 524.845 443.549Z"
              fill="#192434"/>
        <path d="M441.096 322.046C441.096 322.046 423.222 323.422 410.739 314.444C410.739 314.444 421.651 335.289 445.474 334.62L441.096 322.037V322.046Z"
              fill="url(#paint10_linear_255_3981)" style="mix-blend-mode:multiply"/>
        <path d="M129.796 483.538H38.0632C34.4288 483.538 31.2313 481.122 30.2367 477.628L0.185867 371.682C-0.678573 368.634 1.6173 365.595 4.78691 365.595H96.5197C100.154 365.595 103.352 368.012 104.346 371.506L134.406 477.451C135.271 480.5 132.975 483.538 129.805 483.538H129.796Z"
              fill="white"/>
        <path d="M134.453 483.538H42.7106C39.0763 483.538 35.8788 481.122 34.8842 477.628L4.83333 371.682C3.96889 368.634 6.26476 365.595 9.43437 365.595H101.167C104.802 365.595 107.999 368.012 108.994 371.506L139.054 477.451C139.918 480.5 137.622 483.538 134.453 483.538Z"
              fill="#192434"/>
        <path d="M104.476 414.321H35.4978C32.1609 414.321 28.7124 411.616 27.7922 408.28C26.872 404.944 28.8425 402.239 32.1794 402.239H101.158C104.495 402.239 107.943 404.944 108.864 408.28C109.784 411.616 107.813 414.321 104.476 414.321Z"
              fill="white"/>
        <path d="M111.708 439.599H42.7292C39.3923 439.599 35.9438 436.895 35.0236 433.558C34.1034 430.222 36.074 427.518 39.4109 427.518H108.389C111.726 427.518 115.175 430.222 116.095 433.558C117.015 436.895 115.045 439.599 111.708 439.599Z"
              fill="white"/>
        <path d="M142.196 422.741C142.196 422.741 132.612 405.882 129.34 403.159C126.069 400.436 103.649 390.269 102.283 390.093C99.271 389.693 98.2857 398.513 101.734 404.005C105.192 409.498 122.276 418.336 122.276 418.336L127.547 436.904L142.196 422.75V422.741Z"
              fill="url(#paint11_linear_255_3981)"/>
        <path d="M816.793 534.113C816.793 534.113 869.979 538.407 893.17 548.899C922.087 561.975 971.648 658.962 988.825 716.061C995.843 739.397 984.336 758.848 984.336 758.848H589.092C589.092 758.848 655.533 568.778 669.113 555.2C682.693 541.623 751.95 534.104 751.95 534.104H816.783L816.793 534.113Z"
              fill="url(#paint12_linear_255_3981)"/>
        <path d="M719.557 401.496C719.557 401.496 700.158 420.65 719.557 438.103L736.047 414.59L719.557 401.496Z"
              fill="#192434"/>
        <path d="M712.344 472.665C715.942 438.27 712.158 399.591 748.493 391.905C783.108 384.582 819.795 410.083 814.739 447.796C814.739 447.796 826.432 446.235 828.979 457.693C831.432 468.743 816.393 488.046 800.675 484.886C800.638 484.951 800.592 485.007 800.554 485.072L816.793 534.123C816.793 534.123 791.771 551.083 752.155 544.057L753.986 514.895C729.475 517.264 709.305 501.744 712.344 472.674V472.665Z"
              fill="url(#paint13_linear_255_3981)"/>
        <path d="M818.457 447.88C818.457 447.88 828.681 442.712 829.889 429.135C831.098 415.557 816.793 410.222 816.793 410.222C816.793 410.222 818.001 393.011 804.914 385.734C791.817 378.457 776.359 369.006 756.18 361.004C735.991 353.003 706.042 370.307 717.01 406.338C726.464 437.434 786.612 426.216 786.612 426.216C786.612 426.216 783.516 431.858 783.433 440.036C783.321 450.314 789.8 454.673 789.8 454.673L786.705 464.403L792.709 467.312C792.709 467.312 804.626 446.216 818.466 447.87L818.457 447.88Z"
              fill="#192434"/>
        <path d="M693.122 747.333C693.122 747.333 732.635 707.79 737.255 706.6C748.223 702.567 818.01 722.78 818.01 722.78C812.377 732.529 810.528 744.833 811.216 758.839H790.608C759.163 757.38 756.626 739.954 756.626 739.954L748.493 747.324H693.131L693.122 747.333Z"
              fill="url(#paint14_linear_255_3981)"/>
        <path d="M902.149 713.124L868.445 613.508L891.72 711.693L902.149 713.124Z" fill="#192434"/>
        <path d="M917.663 715.698C917.663 715.698 841.425 704.016 826.971 713.273C808.055 725.391 811.197 758.848 811.197 758.848"
              stroke="#192434" stroke-width="2" stroke-miterlimit="10" stroke-linecap="round"/>
        <path d="M753.986 514.876C753.986 514.876 779.687 510.043 788.787 487.683C788.787 487.683 787.969 519.142 753.159 528.147L753.995 514.876H753.986Z"
              fill="url(#paint15_linear_255_3981)" style="mix-blend-mode:multiply"/>
        <path d="M708.069 758.848H829.239C829.239 752.491 824.08 747.333 817.722 747.333H708.069V758.848Z"
              fill="#192434"/>
        <path d="M556.141 758.848H758.355C762.286 758.848 765.159 755.149 764.192 751.339L728.313 610.264C727.216 605.971 723.35 602.959 718.916 602.959H516.702C512.77 602.959 509.898 606.658 510.865 610.469L546.744 751.543C547.841 755.837 551.707 758.848 556.141 758.848Z"
              fill="#192434"/>
        <path d="M546.846 758.848H749.06C752.992 758.848 755.864 755.149 754.897 751.339L719.018 610.264C717.921 605.971 714.055 602.959 709.621 602.959H507.407C503.475 602.959 500.603 606.658 501.57 610.469L537.449 751.543C538.546 755.837 542.412 758.848 546.846 758.848Z"
              fill="url(#paint16_linear_255_3981)"/>
        <path d="M623.177 692.799C634.024 692.799 642.817 687.815 642.817 681.666C642.817 675.517 634.024 670.532 623.177 670.532C612.33 670.532 603.537 675.517 603.537 681.666C603.537 687.815 612.33 692.799 623.177 692.799Z"
              fill="white"/>
        <path d="M588.567 165.171C616.434 137.309 616.434 92.1354 588.567 64.2731C560.7 36.4108 515.519 36.4108 487.652 64.2731C459.785 92.1354 459.785 137.309 487.652 165.171C515.519 193.034 560.7 193.034 588.567 165.171Z"
              stroke="url(#paint17_linear_255_3981)" stroke-width="1.28" stroke-miterlimit="10"/>
        <path d="M603.126 120.356C606.244 84.4291 579.643 52.7771 543.71 49.6592C507.777 46.5412 476.12 73.1381 473.001 109.065C469.883 144.992 496.484 176.644 532.417 179.762C568.35 182.88 600.008 156.283 603.126 120.356Z"
              fill="url(#paint18_linear_255_3981)"/>
        <path d="M590.771 120.785C594.115 91.7105 573.252 65.4303 544.173 62.0868C515.093 58.7434 488.808 79.6026 485.464 108.677C482.12 137.752 502.983 164.032 532.063 167.376C561.142 170.719 587.427 149.86 590.771 120.785Z"
              fill="white"/>
        <path d="M545.088 115.581C545.564 111.724 542.823 108.213 538.966 107.737C535.109 107.262 531.597 110.002 531.121 113.858C530.646 117.715 533.387 121.226 537.243 121.702C541.1 122.177 544.612 119.437 545.088 115.581Z"
              fill="url(#paint19_linear_255_3981)"/>
        <path d="M540.897 114.728C540.897 116.27 539.652 117.516 538.109 117.516C536.566 117.516 535.32 116.27 535.32 114.728C535.32 113.185 536.566 111.94 538.109 111.94C539.652 111.94 540.897 113.185 540.897 114.728Z"
              fill="#192434"/>
        <path d="M540.832 56.2812C540.832 54.7773 539.613 53.5582 538.109 53.5582C536.605 53.5582 535.385 54.7773 535.385 56.2812V67.1824C535.385 68.6863 536.605 69.9054 538.109 69.9054C539.613 69.9054 540.832 68.6863 540.832 67.1824V56.2812Z"
              fill="white"/>
        <path d="M582.929 114.728C582.929 113.222 584.147 112.005 585.653 112.005H596.556C598.062 112.005 599.279 113.222 599.279 114.728C599.279 116.233 598.062 117.451 596.556 117.451H585.653C584.147 117.451 582.929 116.233 582.929 114.728Z"
              fill="white"/>
        <path d="M535.385 173.156C535.385 174.66 536.605 175.879 538.109 175.879C539.613 175.879 540.832 174.66 540.832 173.156V162.254C540.832 160.751 539.613 159.531 538.109 159.531C536.605 159.531 535.385 160.751 535.385 162.254V173.156Z"
              fill="white"/>
        <path d="M493.288 114.728C493.288 116.233 492.071 117.451 490.565 117.451H479.662C478.156 117.451 476.938 116.233 476.938 114.728C476.938 113.222 478.156 112.005 479.662 112.005H490.565C492.071 112.005 493.288 113.222 493.288 114.728Z"
              fill="white"/>
        <path d="M538.109 114.728L511.953 75.2398" stroke="#192434" stroke-width="1.71" stroke-linecap="round"
              stroke-linejoin="round"/>
        <path d="M521.861 138.454L538.109 114.728" stroke="#192434" stroke-width="3.42" stroke-linecap="round"
              stroke-linejoin="round"/>
        <path d="M193.263 238.433H305.119C315.344 238.433 323.635 230.143 323.635 219.92C321.72 203.908 332.168 162.44 305.119 162.747H193.263C166.279 162.385 176.606 203.964 174.747 219.92C174.747 230.143 183.038 238.433 193.263 238.433Z"
              fill="white" stroke="url(#paint20_linear_255_3981)" stroke-width="1.19" stroke-miterlimit="10"/>
        <path d="M292.255 232.225C292.255 232.225 289.438 276.508 321.906 276.508C321.906 276.508 265.996 291.87 265.996 232.225"
              fill="white"/>
        <path d="M292.255 232.225C292.255 232.225 289.438 276.508 321.906 276.508C321.906 276.508 265.996 291.87 265.996 232.225"
              stroke="url(#paint21_linear_255_3981)" stroke-width="1.19" stroke-linecap="round"
              stroke-linejoin="round"/>
        <path d="M313.829 198.908C313.829 198.908 303.53 184.958 293.956 186.139C281.612 187.663 297.813 217.374 281.584 217.3C271.443 217.253 263.45 194.493 254.099 195.228C244.469 195.98 252.37 210.376 240.686 209.939C229.002 209.502 219.475 186.287 210.384 186.101C201.294 185.925 201.944 206.696 187.881 203.443"
              stroke="url(#paint22_linear_255_3981)" stroke-width="4.76" stroke-miterlimit="10" stroke-linecap="round"/>
        <path d="M786.132 136.399C793.295 108.764 776.696 80.556 749.057 73.3937C721.417 66.2315 693.204 82.8277 686.041 110.462C678.877 138.097 695.476 166.305 723.116 173.468C750.755 180.63 778.968 164.034 786.132 136.399Z"
              fill="url(#paint23_linear_255_3981)"/>
        <path d="M751.244 112.349C751.244 121.902 744.44 129.644 736.047 129.644C727.653 129.644 720.849 121.902 720.849 112.349C720.849 102.795 727.653 95.0535 736.047 95.0535C744.44 95.0535 751.244 102.795 751.244 112.349Z"
              fill="white"/>
        <path d="M769.918 154.764C761.497 163.872 749.422 169.568 736.047 169.568C722.671 169.568 710.597 163.862 702.176 154.764C703.839 152.626 705.698 150.675 707.734 148.918C713.897 143.612 721.63 140.08 730.07 139.067C734.03 138.593 738.054 138.593 742.014 139.067C753.261 140.415 763.216 146.205 769.909 154.764H769.918Z"
              fill="white"/>
        <path d="M1089.88 462.738C1094.69 442.387 1082.08 421.995 1061.73 417.192C1041.37 412.389 1020.98 424.993 1016.17 445.344C1011.37 465.695 1023.98 486.087 1044.33 490.89C1064.68 495.693 1085.08 483.089 1089.88 462.738Z"
              fill="url(#paint24_linear_255_3981)"/>
        <path d="M1064.2 445.956C1064.2 452.954 1059.22 458.623 1053.06 458.623C1046.91 458.623 1041.93 452.954 1041.93 445.956C1041.93 438.958 1046.91 433.289 1053.06 433.289C1059.22 433.289 1064.2 438.958 1064.2 445.956Z"
              fill="white"/>
        <path d="M1077.88 477.042C1071.71 483.715 1062.87 487.888 1053.06 487.888C1043.26 487.888 1034.42 483.706 1028.25 477.042C1029.46 475.481 1030.83 474.05 1032.32 472.758C1036.83 468.864 1042.5 466.29 1048.69 465.537C1051.59 465.184 1054.53 465.184 1057.44 465.537C1065.68 466.522 1072.97 470.76 1077.88 477.042Z"
              fill="white"/>
        <path opacity="0.3"
              d="M646.21 545.089C619.886 520.619 626.681 473.074 626.681 473.074H557.907C557.907 473.074 551.103 520.629 577.436 545.089H646.21Z"
              fill="url(#paint25_linear_255_3981)"/>
        <path d="M585.772 460.313L577.949 467.556L596.567 487.658L604.389 480.415L585.772 460.313Z" fill="#192434"/>
        <path d="M617.302 497.367H567.295C566.189 497.367 565.297 496.475 565.297 495.369C565.297 494.263 566.189 493.371 567.295 493.371H617.302C618.409 493.371 619.301 494.263 619.301 495.369C619.301 496.475 618.409 497.367 617.302 497.367Z"
              fill="white"/>
        <path d="M618.752 509.086H568.745C567.639 509.086 566.747 508.194 566.747 507.088C566.747 505.982 567.639 505.09 568.745 505.09H618.752C619.858 505.09 620.751 505.982 620.751 507.088C620.751 508.194 619.858 509.086 618.752 509.086Z"
              fill="white"/>
        <path d="M620.993 520.805H570.985C569.879 520.805 568.987 519.913 568.987 518.807C568.987 517.701 569.879 516.809 570.985 516.809H620.993C622.099 516.809 622.991 517.701 622.991 518.807C622.991 519.913 622.099 520.805 620.993 520.805Z"
              fill="white"/>
        <path d="M598.387 532.524H576.664C575.558 532.524 574.666 531.632 574.666 530.526C574.666 529.42 575.558 528.528 576.664 528.528H598.387C599.493 528.528 600.385 529.42 600.385 530.526C600.385 531.632 599.493 532.524 598.387 532.524Z"
              fill="white"/>
        <path opacity="0.3"
              d="M330.299 107.72C356.623 83.2508 349.828 35.7055 349.828 35.7055H418.602C418.602 35.7055 425.406 83.2601 399.073 107.72H330.299Z"
              fill="url(#paint26_linear_255_3981)"/>
        <path d="M372.131 43.0618L379.954 50.3044L398.572 30.2023L390.749 22.9597L372.131 43.0618Z" fill="#192434"/>
        <path d="M359.216 59.9893H409.224C410.33 59.9893 411.222 59.0971 411.222 57.9912C411.222 56.8853 410.33 55.9931 409.224 55.9931H359.216C358.11 55.9931 357.218 56.8853 357.218 57.9912C357.218 59.0971 358.11 59.9893 359.216 59.9893Z"
              fill="white"/>
        <path d="M357.757 71.7083H407.764C408.87 71.7083 409.763 70.8162 409.763 69.7103C409.763 68.6043 408.87 67.7122 407.764 67.7122H357.757C356.651 67.7122 355.758 68.6043 355.758 69.7103C355.758 70.8162 356.651 71.7083 357.757 71.7083Z"
              fill="white"/>
        <path d="M355.517 83.4274H405.524C406.63 83.4274 407.523 82.5352 407.523 81.4293C407.523 80.3234 406.63 79.4312 405.524 79.4312H355.517C354.411 79.4312 353.518 80.3234 353.518 81.4293C353.518 82.5352 354.411 83.4274 355.517 83.4274Z"
              fill="white"/>
        <path d="M378.131 95.1465H399.854C400.96 95.1465 401.852 94.2543 401.852 93.1484C401.852 92.0424 400.96 91.1503 399.854 91.1503H378.131C377.025 91.1503 376.133 92.0424 376.133 93.1484C376.133 94.2543 377.025 95.1465 378.131 95.1465Z"
              fill="white"/>
        <path d="M951.022 735.986C951.022 744.201 956.414 749.722 964.444 749.722H967.707C967.837 754.777 971.964 758.848 977.058 758.848H1004.07C1009.24 758.848 1013.43 754.657 1013.43 749.489V713.124H967.698V720.522H962.818C958.263 720.522 954.22 723.161 952.519 727.25C951.524 729.648 951.022 732.594 951.022 735.995V735.986ZM955.847 735.986C955.847 733.217 956.228 730.903 956.981 729.09C957.91 726.851 960.252 725.345 962.818 725.345H967.698V744.908H964.444C959.137 744.908 955.847 741.488 955.847 735.995V735.986Z"
              fill="#192434"/>
        <path d="M384.099 727.241C382.407 723.152 378.364 720.512 373.8 720.512H368.92V713.115H323.189V749.48C323.189 754.647 327.381 758.839 332.549 758.839H359.56C364.654 758.839 368.781 754.777 368.911 749.712H372.174C380.205 749.712 385.596 744.192 385.596 735.977C385.596 732.575 385.094 729.629 384.099 727.232V727.241ZM372.174 744.898H368.92V725.336H373.8C376.366 725.336 378.708 726.841 379.638 729.081C380.39 730.893 380.772 733.207 380.772 735.977C380.772 741.478 377.472 744.889 372.174 744.889V744.898Z"
              fill="#192434"/>
        <path d="M306.746 758.662H240.305L226 661.127H321.051L306.746 758.662Z" fill="url(#paint27_linear_255_3981)"/>
        <path d="M334.752 684.287H212.299L216.602 657.735H330.448L334.752 684.287Z"
              fill="url(#paint28_linear_255_3981)"/>
        <path d="M231.335 657.735C231.335 657.735 222.849 616.519 181.142 599.79C181.142 599.79 222.849 591.547 250.734 633.488C250.734 633.488 231.335 562.208 208.06 527.543C208.06 527.543 244.915 549.095 263.831 633.321C263.831 633.321 260.921 574.772 275.226 539.401C275.226 539.401 294.383 575.451 295.833 633.321C295.833 633.321 311.105 566.576 366.634 552.515C366.634 552.515 329.23 604.484 314.74 657.735H231.326H231.335Z"
              fill="url(#paint29_linear_255_3981)"/>
        <path d="M790.107 100.611C798.045 67.8794 846.258 8.96821 922.422 25.6964C1025.17 48.2609 1012.51 174.373 986.492 162.431C960.606 150.545 1026.38 80.6579 1099.4 134.067C1177.96 191.529 1130.68 312.26 1047.75 314.927"
              stroke="#192434" stroke-miterlimit="10" stroke-linecap="round"/>
        <path d="M347.198 512.441C347.198 515.462 344.753 517.906 341.732 517.906C338.711 517.906 336.267 515.462 336.267 512.441C336.267 509.421 338.711 506.977 341.732 506.977C344.753 506.977 347.198 509.421 347.198 512.441Z"
              fill="url(#paint30_linear_255_3981)"/>
        <path d="M324.667 512.441C324.667 515.462 322.222 517.906 319.201 517.906C316.18 517.906 313.736 515.462 313.736 512.441C313.736 509.421 316.18 506.977 319.201 506.977C322.222 506.977 324.667 509.421 324.667 512.441Z"
              fill="url(#paint31_linear_255_3981)"/>
        <path d="M302.126 512.441C302.126 515.462 299.682 517.906 296.661 517.906C293.64 517.906 291.195 515.462 291.195 512.441C291.195 509.421 293.64 506.977 296.661 506.977C299.682 506.977 302.126 509.421 302.126 512.441Z"
              fill="url(#paint32_linear_255_3981)"/>
        <path d="M279.595 512.441C279.595 515.462 277.15 517.906 274.13 517.906C271.109 517.906 268.664 515.462 268.664 512.441C268.664 509.421 271.109 506.977 274.13 506.977C277.15 506.977 279.595 509.421 279.595 512.441Z"
              fill="url(#paint33_linear_255_3981)"/>
        <path d="M1099.17 677.867C1100.63 671.682 1096.8 665.486 1090.61 664.026C1084.43 662.567 1078.23 666.397 1076.77 672.581C1075.31 678.765 1079.14 684.962 1085.33 686.421C1091.51 687.881 1097.71 684.051 1099.17 677.867Z"
              fill="#192434"/>
        <path d="M1041.54 681.749C1044.98 681.749 1047.77 678.962 1047.77 675.523C1047.77 672.084 1044.98 669.296 1041.54 669.296C1038.1 669.296 1035.31 672.084 1035.31 675.523C1035.31 678.962 1038.1 681.749 1041.54 681.749Z"
              fill="url(#paint34_linear_255_3981)"/>
        <path d="M736.047 307.121C737.556 307.121 738.779 305.898 738.779 304.389C738.779 302.88 737.556 301.656 736.047 301.656C734.537 301.656 733.314 302.88 733.314 304.389C733.314 305.898 734.537 307.121 736.047 307.121Z"
              fill="url(#paint35_linear_255_3981)"/>
        <path d="M507.943 13.064C508.943 6.92414 504.776 1.13619 498.635 0.136254C492.494 -0.863686 486.705 3.30304 485.705 9.4429C484.705 15.5828 488.872 21.3708 495.013 22.3707C501.154 23.3706 506.943 19.2039 507.943 13.064Z"
              fill="url(#paint36_linear_255_3981)"/>
        <path d="M255.214 71.7269C255.214 74.1339 253.262 76.0948 250.845 76.0948C248.429 76.0948 246.477 74.1432 246.477 71.7269C246.477 69.3106 248.429 67.359 250.845 67.359C253.262 67.359 255.214 69.3106 255.214 71.7269Z"
              fill="#192434"/>
        <path d="M811.011 16.3193C813.804 16.3193 816.068 14.0558 816.068 11.2637C816.068 8.47153 813.804 6.20804 811.011 6.20804C808.218 6.20804 805.955 8.47153 805.955 11.2637C805.955 14.0558 808.218 16.3193 811.011 16.3193Z"
              fill="#192434"/>
        <path d="M1033.34 79.6313C1040.11 76.8245 1043.33 69.0559 1040.53 62.2797C1037.72 55.5034 1029.95 52.2856 1023.17 55.0924C1016.39 57.8992 1013.18 65.6678 1015.98 72.444C1018.79 79.2203 1026.56 82.4381 1033.34 79.6313Z"
              fill="#192434"/>
        <path d="M1085.27 70.3919C1086.96 63.2535 1082.53 56.1008 1075.4 54.416C1068.26 52.7312 1061.1 57.1522 1059.42 64.2906C1057.73 71.429 1062.15 78.5816 1069.29 80.2664C1076.43 81.9512 1083.59 77.5303 1085.27 70.3919Z"
              fill="#192434"/>
        <path d="M187.881 713.161C195.217 713.161 201.163 707.215 201.163 699.881C201.163 692.546 195.217 686.6 187.881 686.6C180.545 686.6 174.598 692.546 174.598 699.881C174.598 707.215 180.545 713.161 187.881 713.161Z"
              fill="#192434"/>
        <path d="M1114.55 758.848H156.287" stroke="#192434" stroke-width="2" stroke-miterlimit="10"
              stroke-linecap="round"/>
        <path d="M991.103 769.071H354.392" stroke="#192434" stroke-width="2" stroke-miterlimit="10"
              stroke-linecap="round"/>
    </g>
    <defs>
        <linearGradient id="paint0_linear_255_3981" x1="927.487" y1="212.616" x2="927.487" y2="596.222"
                        gradientUnits="userSpaceOnUse">
            <stop stop-color="#6F95ED"/>
            <stop offset="1" stop-color="#5873EC"/>
        </linearGradient>
        <linearGradient id="paint1_linear_255_3981" x1="802.943" y1="256.472" x2="869.133" y2="256.472"
                        gradientUnits="userSpaceOnUse">
            <stop stop-color="#53B0B1"/>
            <stop offset="1" stop-color="#6ACAD8"/>
        </linearGradient>
        <linearGradient id="paint2_linear_255_3981" x1="0.000348068" y1="352.306" x2="0.929852" y2="352.306"
                        gradientUnits="userSpaceOnUse">
            <stop stop-color="#53B0B1"/>
            <stop offset="1" stop-color="#6ACAD8"/>
        </linearGradient>
        <linearGradient id="paint3_linear_255_3981" x1="511.571" y1="537.004" x2="511.571" y2="724.035"
                        gradientUnits="userSpaceOnUse">
            <stop stop-color="#EE9AC5"/>
            <stop offset="0.99" stop-color="#E181BB"/>
        </linearGradient>
        <linearGradient id="paint4_linear_255_3981" x1="686.355" y1="186.352" x2="587.455" y2="381.287"
                        gradientUnits="userSpaceOnUse">
            <stop stop-color="#FFD2B6"/>
            <stop offset="1" stop-color="#FFB793"/>
        </linearGradient>
        <linearGradient id="paint5_linear_255_3981" x1="421.707" y1="537.004" x2="421.707" y2="724.035"
                        gradientUnits="userSpaceOnUse">
            <stop stop-color="#EE9AC5"/>
            <stop offset="0.99" stop-color="#E181BB"/>
        </linearGradient>
        <linearGradient id="paint6_linear_255_3981" x1="148.042" y1="442.006" x2="282.625" y2="450.01"
                        gradientUnits="userSpaceOnUse">
            <stop stop-color="#FFD2B6"/>
            <stop offset="1" stop-color="#FFB793"/>
        </linearGradient>
        <linearGradient id="paint7_linear_255_3981" x1="423.519" y1="537.97" x2="423.519" y2="380.855"
                        gradientUnits="userSpaceOnUse">
            <stop stop-color="#1676F3"/>
            <stop offset="1" stop-color="#71B0F7"/>
        </linearGradient>
        <linearGradient id="paint8_linear_255_3981" x1="412.784" y1="244.511" x2="412.784" y2="401.003"
                        gradientUnits="userSpaceOnUse">
            <stop stop-color="#FFD2B6"/>
            <stop offset="1" stop-color="#FFB793"/>
        </linearGradient>
        <linearGradient id="paint9_linear_255_3981" x1="369.617" y1="292.828" x2="388.226" y2="292.828"
                        gradientUnits="userSpaceOnUse">
            <stop stop-color="#FFD2B6"/>
            <stop offset="1" stop-color="#FFB793"/>
        </linearGradient>
        <linearGradient id="paint10_linear_255_3981" x1="428.111" y1="318.217" x2="428.111" y2="339.481"
                        gradientUnits="userSpaceOnUse">
            <stop stop-color="#FFD2B6"/>
            <stop offset="1" stop-color="#FFB793"/>
        </linearGradient>
        <linearGradient id="paint11_linear_255_3981" x1="149.622" y1="415.548" x2="284.196" y2="423.552"
                        gradientUnits="userSpaceOnUse">
            <stop stop-color="#FFD2B6"/>
            <stop offset="1" stop-color="#FFB793"/>
        </linearGradient>
        <linearGradient id="paint12_linear_255_3981" x1="790.107" y1="745.883" x2="790.107" y2="517.497"
                        gradientUnits="userSpaceOnUse">
            <stop stop-color="#FF9C00"/>
            <stop offset="1" stop-color="#FFCA00"/>
        </linearGradient>
        <linearGradient id="paint13_linear_255_3981" x1="758.662" y1="415.733" x2="791.899" y2="569.394"
                        gradientUnits="userSpaceOnUse">
            <stop stop-color="#FFCBCA"/>
            <stop offset="1" stop-color="#E994A8"/>
        </linearGradient>
        <linearGradient id="paint14_linear_255_3981" x1="692.304" y1="732.464" x2="824.749" y2="732.464"
                        gradientUnits="userSpaceOnUse">
            <stop stop-color="#FFCBCA"/>
            <stop offset="1" stop-color="#E994A8"/>
        </linearGradient>
        <linearGradient id="paint15_linear_255_3981" x1="776.164" y1="490.62" x2="763.183" y2="526.095"
                        gradientUnits="userSpaceOnUse">
            <stop stop-color="#FFCBCA"/>
            <stop offset="1" stop-color="#E994A8"/>
        </linearGradient>
        <linearGradient id="paint16_linear_255_3981" x1="606.985" y1="571.241" x2="642.861" y2="756.471"
                        gradientUnits="userSpaceOnUse">
            <stop stop-color="#A0CEF9"/>
            <stop offset="1" stop-color="#71B0F7"/>
        </linearGradient>
        <linearGradient id="paint17_linear_255_3981" x1="466.154" y1="114.725" x2="610.06" y2="114.725"
                        gradientUnits="userSpaceOnUse">
            <stop stop-color="#7695DB"/>
            <stop offset="1" stop-color="#5873EC"/>
        </linearGradient>
        <linearGradient id="paint18_linear_255_3981" x1="445.579" y1="117.664" x2="595.487" y2="84.3263"
                        gradientUnits="userSpaceOnUse">
            <stop stop-color="#A0CEF9"/>
            <stop offset="1" stop-color="#71B0F7"/>
        </linearGradient>
        <linearGradient id="paint19_linear_255_3981" x1="531.063" y1="114.736" x2="545.136" y2="114.736"
                        gradientUnits="userSpaceOnUse">
            <stop stop-color="#7695DB"/>
            <stop offset="1" stop-color="#5873EC"/>
        </linearGradient>
        <linearGradient id="paint20_linear_255_3981" x1="324.639" y1="200.59" x2="173.743" y2="200.59"
                        gradientUnits="userSpaceOnUse">
            <stop stop-color="#7695DB"/>
            <stop offset="1" stop-color="#5873EC"/>
        </linearGradient>
        <linearGradient id="paint21_linear_255_3981" x1="322.454" y1="255.254" x2="265.448" y2="255.254"
                        gradientUnits="userSpaceOnUse">
            <stop stop-color="#7695DB"/>
            <stop offset="1" stop-color="#5873EC"/>
        </linearGradient>
        <linearGradient id="paint22_linear_255_3981" x1="316.041" y1="201.687" x2="185.659" y2="201.687"
                        gradientUnits="userSpaceOnUse">
            <stop stop-color="#7695DB"/>
            <stop offset="1" stop-color="#5873EC"/>
        </linearGradient>
        <linearGradient id="paint23_linear_255_3981" x1="736.087" y1="171.572" x2="736.087" y2="54.67"
                        gradientUnits="userSpaceOnUse">
            <stop stop-color="#006AF5"/>
            <stop offset="1" stop-color="#71B0F7"/>
        </linearGradient>
        <linearGradient id="paint24_linear_255_3981" x1="1053.01" y1="489.389" x2="1053.01" y2="403.749"
                        gradientUnits="userSpaceOnUse">
            <stop stop-color="#006AF5"/>
            <stop offset="1" stop-color="#71B0F7"/>
        </linearGradient>
        <linearGradient id="paint25_linear_255_3981" x1="601.668" y1="467.665" x2="601.668" y2="542.115"
                        gradientUnits="userSpaceOnUse">
            <stop stop-color="#6F95ED"/>
            <stop offset="1" stop-color="#5873EC"/>
        </linearGradient>
        <linearGradient id="paint26_linear_255_3981" x1="374.841" y1="30.2874" x2="374.841" y2="104.747"
                        gradientUnits="userSpaceOnUse">
            <stop stop-color="#6F95ED"/>
            <stop offset="1" stop-color="#5873EC"/>
        </linearGradient>
        <linearGradient id="paint27_linear_255_3981" x1="265.565" y1="641.282" x2="300.773" y2="750.134"
                        gradientUnits="userSpaceOnUse">
            <stop stop-color="#A0CEF9"/>
            <stop offset="1" stop-color="#71B0F7"/>
        </linearGradient>
        <linearGradient id="paint28_linear_255_3981" x1="273.525" y1="608.275" x2="273.525" y2="759.043"
                        gradientUnits="userSpaceOnUse">
            <stop stop-color="#71B0F7"/>
            <stop offset="1" stop-color="#006AF5"/>
        </linearGradient>
        <linearGradient id="paint29_linear_255_3981" x1="273.888" y1="655.309" x2="273.888" y2="540.954"
                        gradientUnits="userSpaceOnUse">
            <stop stop-color="#53B0B1"/>
            <stop offset="1" stop-color="#6ACAD8"/>
        </linearGradient>
        <linearGradient id="paint30_linear_255_3981" x1="272.549" y1="493.761" x2="358.74" y2="517.049"
                        gradientUnits="userSpaceOnUse">
            <stop stop-color="#6F95ED"/>
            <stop offset="1" stop-color="#5873EC"/>
        </linearGradient>
        <linearGradient id="paint31_linear_255_3981" x1="271.016" y1="499.43" x2="357.216" y2="522.718"
                        gradientUnits="userSpaceOnUse">
            <stop stop-color="#6F95ED"/>
            <stop offset="1" stop-color="#5873EC"/>
        </linearGradient>
        <linearGradient id="paint32_linear_255_3981" x1="269.482" y1="505.099" x2="355.682" y2="528.387"
                        gradientUnits="userSpaceOnUse">
            <stop stop-color="#6F95ED"/>
            <stop offset="1" stop-color="#5873EC"/>
        </linearGradient>
        <linearGradient id="paint33_linear_255_3981" x1="267.948" y1="510.778" x2="354.148" y2="534.056"
                        gradientUnits="userSpaceOnUse">
            <stop stop-color="#6F95ED"/>
            <stop offset="1" stop-color="#5873EC"/>
        </linearGradient>
        <linearGradient id="paint34_linear_255_3981" x1="1040.49" y1="666.762" x2="1044.9" y2="680.727"
                        gradientUnits="userSpaceOnUse">
            <stop stop-color="#A0CEF9"/>
            <stop offset="1" stop-color="#71B0F7"/>
        </linearGradient>
        <linearGradient id="paint35_linear_255_3981" x1="732.71" y1="301.052" x2="740.962" y2="309.306"
                        gradientUnits="userSpaceOnUse">
            <stop stop-color="#6F95ED"/>
            <stop offset="1" stop-color="#5873EC"/>
        </linearGradient>
        <linearGradient id="paint36_linear_255_3981" x1="480.877" y1="10.5683" x2="507.094" y2="6.76835"
                        gradientUnits="userSpaceOnUse">
            <stop stop-color="#A0CEF9"/>
            <stop offset="1" stop-color="#71B0F7"/>
        </linearGradient>
        <clipPath id="clip0_255_3981">
            <rect width="1140" height="770" fill="white"/>
        </clipPath>
    </defs>
</svg>