<svg width="32" height="32" viewBox="0 0 32 32" fill="none" xmlns="http://www.w3.org/2000/svg">
<path d="M29.9021 10.9072C27.2972 8.07833 24.6679 5.27554 22.0473 2.46367C21.9097 2.31614 21.7559 2.18588 21.5595 2C20.8691 3.48614 20.2094 4.90642 19.5498 6.32669L19.5487 6.32933C19.5476 6.33167 19.5465 6.3343 19.5454 6.33665C19.5449 6.33782 19.5443 6.33899 19.5438 6.34016V6.34074L19.4702 6.4994L19.5569 6.59219C21.986 9.19769 24.4214 11.7962 26.8408 14.4119C27.724 15.3671 27.7276 16.8309 26.8928 17.753C26.0684 18.6634 24.6516 18.6935 23.7838 17.7679C21.7341 15.5822 19.7034 13.376 17.6656 11.1771L17.4643 10.9684L17.4085 10.9104L19.47 6.4994L19.543 6.33957C18.9356 5.74242 18.3073 5.15318 17.7163 4.53817C17.5292 4.34352 17.3352 4.1632 17.1367 3.99459C14.4929 1.74826 10.9267 1.81149 8.41363 4.27385C7.10387 5.55743 6.44558 7.20222 6.26365 9.0645C6.06646 9.10695 5.91231 9.14471 5.75652 9.17252C3.0915 9.65024 1.23158 11.2397 0.382911 13.9851C-0.473925 16.7572 0.120631 19.2626 2.03203 21.3579C3.73998 23.2301 5.48525 25.0634 7.20056 26.928C7.78258 27.5606 8.32348 28.2365 8.9529 28.9741L11.0876 24.4062L11.1653 24.4891C11.2216 24.5494 11.278 24.6091 11.3341 24.6691L11.4602 24.8035V24.8029C12.3563 25.756 13.2548 26.7067 14.1468 27.6648C16.105 29.768 18.4266 30.5338 21.0791 29.6199C23.7264 28.7075 25.2279 26.6625 25.6884 23.7143C25.7189 23.5196 25.9796 23.2515 26.1651 23.2175C28.8756 22.7181 30.7709 21.1295 31.6294 18.318C32.4889 15.5029 31.8293 13.0016 29.9015 10.9078L29.9021 10.9072ZM19.556 6.5919C19.556 6.5919 19.556 6.59161 19.556 6.59131C19.556 6.59131 19.556 6.59161 19.556 6.5919ZM11.3565 7.88835C12.1743 6.98561 13.4917 6.88286 14.3472 7.73643C14.6871 8.0754 15.0188 8.42374 15.3484 8.77471L17.399 10.9016L17.3262 11.072C17.1274 11.4923 16.9289 11.9124 16.7301 12.3327L15.3293 15.3299L15.3353 15.3173L15.3334 15.3141L15.3247 15.305C15.3184 15.2983 15.3122 15.2918 15.3059 15.2854L11.3156 11.1092C10.5195 10.1768 10.5448 8.78378 11.3562 7.88806L11.3565 7.88835ZM11.156 24.2602L11.0569 24.163L11.0577 24.1642C10.6216 23.7388 10.175 23.3249 9.7569 22.8803C8.24804 21.2756 6.74517 19.6645 5.25102 18.044C4.25719 16.9662 4.22505 15.5339 5.15052 14.5571C6.0493 13.6084 7.36206 13.6649 8.34609 14.7137C9.94918 16.4229 11.5433 18.1423 13.1409 19.8574L13.1921 19.9042L13.196 19.896L11.1563 24.2602H11.156ZM20.6223 24.49C19.7815 25.3992 18.4056 25.417 17.5155 24.4829C16.3264 23.2348 15.1553 21.967 13.9806 20.703L13.9814 20.7039L13.9035 20.6202C13.8491 20.5617 13.7946 20.5031 13.7401 20.4446L13.2071 19.8717L15.2743 15.4484L15.3699 15.5512C15.3699 15.5512 15.3699 15.5512 15.3699 15.5515C15.4029 15.5866 15.4355 15.6217 15.4685 15.6568L20.594 21.1506C21.4642 22.0941 21.4598 23.5843 20.6218 24.4906L20.6223 24.49Z" fill="#006AF5"/>
</svg>
